<svg width="26" height="22" viewBox="0 0 26 22" fill="none" xmlns="http://www.w3.org/2000/svg">
<path d="M8.86167 11.4196C11.6235 11.4196 13.8619 9.05155 13.8619 6.12972C13.8619 3.20789 11.6235 0.839844 8.86167 0.839844C6.09984 0.839844 3.86147 3.20789 3.86147 6.12972C3.86147 9.05155 6.09984 11.4196 8.86167 11.4196ZM12.3618 12.7421H11.7094C10.8422 13.1636 9.87733 13.4033 8.86167 13.4033C7.84601 13.4033 6.88503 13.1636 6.0139 12.7421H5.36153C2.46298 12.7421 0.111328 15.23 0.111328 18.2964V20.0156C0.111328 21.1108 0.951205 21.9993 1.9864 21.9993H12.7251C12.6313 21.7183 12.5923 21.4208 12.6235 21.1191L12.8892 18.6023L12.936 18.1435L13.2447 17.817L16.2643 14.6224C15.3072 13.4777 13.9205 12.7421 12.3618 12.7421ZM14.1314 18.7469L13.8658 21.2679C13.8228 21.6894 14.1588 22.0448 14.5533 21.9952L16.9323 21.7142L22.3192 16.0152L19.5183 13.052L14.1314 18.7469ZM24.8389 11.9527L23.3583 10.3864C22.995 10.0021 22.4013 10.0021 22.038 10.3864L20.5613 11.9486L20.4012 12.118L23.206 15.0812L24.8389 13.3537C25.2022 12.9652 25.2022 12.3412 24.8389 11.9527Z" fill="#C4C4C4"/>
</svg>
