<svg width="19" height="20" viewBox="0 0 19 20" fill="none" xmlns="http://www.w3.org/2000/svg">
<path d="M17.4685 1.25001H12.647L12.2694 0.519538C12.1894 0.363372 12.0661 0.232008 11.9135 0.140225C11.7609 0.0484421 11.585 -0.00011828 11.4055 6.84872e-06H6.81311C6.63407 -0.000662313 6.45845 0.047717 6.30638 0.139602C6.15431 0.231487 6.03194 0.363161 5.95329 0.519538L5.57561 1.25001H0.754185C0.583689 1.25001 0.420176 1.31585 0.299617 1.43306C0.179058 1.55027 0.111328 1.70925 0.111328 1.87501L0.111328 3.12501C0.111328 3.29077 0.179058 3.44974 0.299617 3.56695C0.420176 3.68416 0.583689 3.75001 0.754185 3.75001H17.4685C17.639 3.75001 17.8025 3.68416 17.923 3.56695C18.0436 3.44974 18.1113 3.29077 18.1113 3.12501V1.87501C18.1113 1.70925 18.0436 1.55027 17.923 1.43306C17.8025 1.31585 17.639 1.25001 17.4685 1.25001ZM2.24883 18.2422C2.27949 18.7182 2.49559 19.165 2.85314 19.4916C3.21068 19.8181 3.6828 19.9999 4.17338 20H14.0493C14.5399 19.9999 15.012 19.8181 15.3695 19.4916C15.7271 19.165 15.9432 18.7182 15.9738 18.2422L16.8256 5.00001H1.39704L2.24883 18.2422Z" fill="#C62C28"/>
</svg>
