<svg width="12" height="12" viewBox="0 0 12 12" fill="none" xmlns="http://www.w3.org/2000/svg">
<path d="M11.3002 9.08929C11.3002 8.86607 11.2109 8.64286 11.0502 8.48214L8.42522 5.85714L11.0502 3.23214C11.2109 3.07143 11.3002 2.84821 11.3002 2.625C11.3002 2.40178 11.2109 2.17857 11.0502 2.01786L9.83594 0.803571C9.67522 0.642857 9.45201 0.553571 9.2288 0.553571C9.00558 0.553571 8.78237 0.642857 8.62165 0.803571L5.99665 3.42857L3.37165 0.803571C3.21094 0.642857 2.98772 0.553571 2.76451 0.553571C2.54129 0.553571 2.31808 0.642857 2.15737 0.803571L0.94308 2.01786C0.782366 2.17857 0.69308 2.40178 0.69308 2.625C0.69308 2.84821 0.782366 3.07143 0.94308 3.23214L3.56808 5.85714L0.94308 8.48214C0.782366 8.64286 0.69308 8.86607 0.69308 9.08929C0.69308 9.3125 0.782366 9.53571 0.94308 9.69643L2.15737 10.9107C2.31808 11.0714 2.54129 11.1607 2.76451 11.1607C2.98772 11.1607 3.21094 11.0714 3.37165 10.9107L5.99665 8.28571L8.62165 10.9107C8.78237 11.0714 9.00558 11.1607 9.2288 11.1607C9.45201 11.1607 9.67522 11.0714 9.83594 10.9107L11.0502 9.69643C11.2109 9.53571 11.3002 9.3125 11.3002 9.08929Z" fill="white"/>
</svg>
