<svg width="20" height="18" viewBox="0 0 20 18" fill="none" xmlns="http://www.w3.org/2000/svg">
<path d="M18.5714 7.125H12.1429V1.5C12.1429 0.809766 11.5031 0.25 10.7143 0.25H9.28571C8.49687 0.25 7.85714 0.809766 7.85714 1.5V7.125H1.42857C0.639732 7.125 0 7.68477 0 8.375V9.625C0 10.3152 0.639732 10.875 1.42857 10.875H7.85714V16.5C7.85714 17.1902 8.49687 17.75 9.28571 17.75H10.7143C11.5031 17.75 12.1429 17.1902 12.1429 16.5V10.875H18.5714C19.3603 10.875 20 10.3152 20 9.625V8.375C20 7.68477 19.3603 7.125 18.5714 7.125Z" fill="#255852"/>
</svg>
